<svg id="visual" viewBox="0 0 1920 1080" width="1920" height="1080" xmlns="http://www.w3.org/2000/svg" xmlns:xlink="http://www.w3.org/1999/xlink" version="1.1"><g><g transform="translate(1332 61)"><path d="M0 -78.7L68.2 -39.4L68.2 39.4L0 78.7L-68.2 39.4L-68.2 -39.4Z" fill="none" stroke="#297EA6" stroke-width="2"></path></g><g transform="translate(771 436)"><path d="M0 -76L65.8 -38L65.8 38L0 76L-65.8 38L-65.8 -38Z" fill="none" stroke="#297EA6" stroke-width="2"></path></g><g transform="translate(1527 736)"><path d="M0 -68L58.9 -34L58.9 34L0 68L-58.9 34L-58.9 -34Z" fill="none" stroke="#297EA6" stroke-width="2"></path></g><g transform="translate(143 856)"><path d="M0 -13L11.3 -6.5L11.3 6.5L0 13L-11.3 6.5L-11.3 -6.5Z" fill="none" stroke="#297EA6" stroke-width="2"></path></g><g transform="translate(330 119)"><path d="M0 -54L46.8 -27L46.8 27L0 54L-46.8 27L-46.8 -27Z" fill="none" stroke="#297EA6" stroke-width="2"></path></g><g transform="translate(8 1031)"><path d="M0 -48L41.6 -24L41.6 24L0 48L-41.6 24L-41.6 -24Z" fill="none" stroke="#297EA6" stroke-width="2"></path></g><g transform="translate(939 971)"><path d="M0 -53L45.9 -26.5L45.9 26.5L0 53L-45.9 26.5L-45.9 -26.5Z" fill="none" stroke="#297EA6" stroke-width="2"></path></g><g transform="translate(1638 268)"><path d="M0 -76L65.8 -38L65.8 38L0 76L-65.8 38L-65.8 -38Z" fill="none" stroke="#297EA6" stroke-width="2"></path></g><g transform="translate(349 533)"><path d="M0 -50L43.3 -25L43.3 25L0 50L-43.3 25L-43.3 -25Z" fill="none" stroke="#297EA6" stroke-width="2"></path></g><g transform="translate(94 53)"><path d="M0 -55L47.6 -27.5L47.6 27.5L0 55L-47.6 27.5L-47.6 -27.5Z" fill="none" stroke="#297EA6" stroke-width="2"></path></g><g transform="translate(1880 1040)"><path d="M0 -41L35.5 -20.5L35.5 20.5L0 41L-35.5 20.5L-35.5 -20.5Z" fill="none" stroke="#297EA6" stroke-width="2"></path></g><g transform="translate(1176 382)"><path d="M0 -73L63.2 -36.5L63.2 36.5L0 73L-63.2 36.5L-63.2 -36.5Z" fill="none" stroke="#297EA6" stroke-width="2"></path></g><g transform="translate(1021 697)"><path d="M0 -58L50.2 -29L50.2 29L0 58L-50.2 29L-50.2 -29Z" fill="none" stroke="#297EA6" stroke-width="2"></path></g><g transform="translate(832 648)"><path d="M0 -30L26 -15L26 15L0 30L-26 15L-26 -15Z" fill="none" stroke="#297EA6" stroke-width="2"></path></g><g transform="translate(1547 1049)"><path d="M0 -22L19.1 -11L19.1 11L0 22L-19.1 11L-19.1 -11Z" fill="none" stroke="#297EA6" stroke-width="2"></path></g><g transform="translate(1885 202)"><path d="M0 -77L66.7 -38.5L66.7 38.5L0 77L-66.7 38.5L-66.7 -38.5Z" fill="none" stroke="#297EA6" stroke-width="2"></path></g><g transform="translate(144 425)"><path d="M0 -50L43.3 -25L43.3 25L0 50L-43.3 25L-43.3 -25Z" fill="none" stroke="#297EA6" stroke-width="2"></path></g><g transform="translate(1748 3)"><path d="M0 -43L37.2 -21.5L37.2 21.5L0 43L-37.2 21.5L-37.2 -21.5Z" fill="none" stroke="#297EA6" stroke-width="2"></path></g><g transform="translate(1185 172)"><path d="M0 -49L42.4 -24.5L42.4 24.5L0 49L-42.4 24.5L-42.4 -24.5Z" fill="none" stroke="#297EA6" stroke-width="2"></path></g><g transform="translate(571 499)"><path d="M0 -71L61.5 -35.5L61.5 35.5L0 71L-61.5 35.5L-61.5 -35.5Z" fill="none" stroke="#297EA6" stroke-width="2"></path></g><g transform="translate(459 1025)"><path d="M0 -42L36.4 -21L36.4 21L0 42L-36.4 21L-36.4 -21Z" fill="none" stroke="#297EA6" stroke-width="2"></path></g><g transform="translate(994 10)"><path d="M0 -36L31.2 -18L31.2 18L0 36L-31.2 18L-31.2 -18Z" fill="none" stroke="#297EA6" stroke-width="2"></path></g></g></svg>