<?xml version="1.0" standalone="no"?>
<svg xmlns:xlink="http://www.w3.org/1999/xlink" id="wave" style="transform:rotate(0deg); transition: 0.3s" viewBox="0 0 1440 100" version="1.1" xmlns="http://www.w3.org/2000/svg"><defs><linearGradient id="sw-gradient-0" x1="0" x2="0" y1="1" y2="0"><stop stop-color="rgba(102, 51, 153, 1)" offset="0%"/><stop stop-color="rgba(102, 51, 153, 1)" offset="100%"/></linearGradient></defs><path style="transform:translate(0, 0px); opacity:1" fill="url(#sw-gradient-0)" d="M0,60L26.7,65C53.3,70,107,80,160,81.7C213.3,83,267,77,320,61.7C373.3,47,427,23,480,25C533.3,27,587,53,640,66.7C693.3,80,747,80,800,71.7C853.3,63,907,47,960,33.3C1013.3,20,1067,10,1120,6.7C1173.3,3,1227,7,1280,18.3C1333.3,30,1387,50,1440,50C1493.3,50,1547,30,1600,25C1653.3,20,1707,30,1760,43.3C1813.3,57,1867,73,1920,70C1973.3,67,2027,43,2080,35C2133.3,27,2187,33,2240,41.7C2293.3,50,2347,60,2400,63.3C2453.3,67,2507,63,2560,60C2613.3,57,2667,53,2720,48.3C2773.3,43,2827,37,2880,38.3C2933.3,40,2987,50,3040,51.7C3093.3,53,3147,47,3200,48.3C3253.3,50,3307,60,3360,65C3413.3,70,3467,70,3520,58.3C3573.3,47,3627,23,3680,21.7C3733.3,20,3787,40,3813,50L3840,60L3840,100L3813.3,100C3786.7,100,3733,100,3680,100C3626.7,100,3573,100,3520,100C3466.7,100,3413,100,3360,100C3306.7,100,3253,100,3200,100C3146.7,100,3093,100,3040,100C2986.7,100,2933,100,2880,100C2826.7,100,2773,100,2720,100C2666.7,100,2613,100,2560,100C2506.7,100,2453,100,2400,100C2346.7,100,2293,100,2240,100C2186.7,100,2133,100,2080,100C2026.7,100,1973,100,1920,100C1866.7,100,1813,100,1760,100C1706.7,100,1653,100,1600,100C1546.7,100,1493,100,1440,100C1386.7,100,1333,100,1280,100C1226.7,100,1173,100,1120,100C1066.7,100,1013,100,960,100C906.7,100,853,100,800,100C746.7,100,693,100,640,100C586.7,100,533,100,480,100C426.7,100,373,100,320,100C266.7,100,213,100,160,100C106.7,100,53,100,27,100L0,100Z"/></svg>