<?xml version="1.0" standalone="no"?>
<svg xmlns:xlink="http://www.w3.org/1999/xlink" id="wave" style="transform:rotate(180deg); transition: 0.3s" viewBox="0 0 1440 100" version="1.1" xmlns="http://www.w3.org/2000/svg"><defs><linearGradient id="sw-gradient-0" x1="0" x2="0" y1="1" y2="0"><stop stop-color="rgba(102, 51, 153, 1)" offset="0%"/><stop stop-color="rgba(102, 51, 153, 1)" offset="100%"/></linearGradient></defs><path style="transform:translate(0, 0px); opacity:1" fill="url(#sw-gradient-0)" d="M0,20L34.3,26.7C68.6,33,137,47,206,46.7C274.3,47,343,33,411,35C480,37,549,53,617,63.3C685.7,73,754,77,823,65C891.4,53,960,27,1029,20C1097.1,13,1166,27,1234,35C1302.9,43,1371,47,1440,53.3C1508.6,60,1577,70,1646,71.7C1714.3,73,1783,67,1851,60C1920,53,1989,47,2057,38.3C2125.7,30,2194,20,2263,18.3C2331.4,17,2400,23,2469,26.7C2537.1,30,2606,30,2674,30C2742.9,30,2811,30,2880,25C2948.6,20,3017,10,3086,6.7C3154.3,3,3223,7,3291,6.7C3360,7,3429,3,3497,5C3565.7,7,3634,13,3703,15C3771.4,17,3840,13,3909,10C3977.1,7,4046,3,4114,10C4182.9,17,4251,33,4320,43.3C4388.6,53,4457,57,4526,61.7C4594.3,67,4663,73,4731,68.3C4800,63,4869,47,4903,38.3L4937.1,30L4937.1,100L4902.9,100C4868.6,100,4800,100,4731,100C4662.9,100,4594,100,4526,100C4457.1,100,4389,100,4320,100C4251.4,100,4183,100,4114,100C4045.7,100,3977,100,3909,100C3840,100,3771,100,3703,100C3634.3,100,3566,100,3497,100C3428.6,100,3360,100,3291,100C3222.9,100,3154,100,3086,100C3017.1,100,2949,100,2880,100C2811.4,100,2743,100,2674,100C2605.7,100,2537,100,2469,100C2400,100,2331,100,2263,100C2194.3,100,2126,100,2057,100C1988.6,100,1920,100,1851,100C1782.9,100,1714,100,1646,100C1577.1,100,1509,100,1440,100C1371.4,100,1303,100,1234,100C1165.7,100,1097,100,1029,100C960,100,891,100,823,100C754.3,100,686,100,617,100C548.6,100,480,100,411,100C342.9,100,274,100,206,100C137.1,100,69,100,34,100L0,100Z"/></svg>